<svg clip-rule="evenodd" fill-rule="evenodd" stroke-linejoin="round" stroke-miterlimit="2" viewBox="0 0 40 40" xmlns="http://www.w3.org/2000/svg" xmlns:xlink="http://www.w3.org/1999/xlink"><clipPath id="a"><path clip-rule="evenodd" d="m-100.669-77.188h165.346v162.754h-165.346z"/></clipPath><g transform="matrix(.241917 0 0 .24577 24.3536 18.9705)"><path d="m-100.669-77.188h165.346v162.754h-165.346z" fill="none"/><g clip-path="url(#a)"><circle cx="27.298" cy="27.298" fill="none" r="27.298" transform="matrix(3.02852 0 0 2.98105 -100.669 -77.1883)"/><path d="m10.098 30.22c-1.285-1.102-2.073-2.462-2.073-4.02v-2.445c-1.295-.143-2.302-1.241-2.302-2.574 0-1.354 1.039-2.464 2.363-2.579.613-5.964 5.816-10.774 11.914-10.774 6.099 0 11.302 4.81 11.914 10.774 1.324.115 2.364 1.225 2.364 2.579 0 1.333-1.008 2.431-2.303 2.574v2.388c0 2.596-2.231 4.669-5.33 5.899 2.228-.157 3.622-.756 4.418-1.268 1.663.899 2.753 1.999 3.267 3.158 3.505-3.604 5.67-8.519 5.67-13.932 0-11.028-8.972-20-20-20s-20 8.972-20 20c0 5.414 2.166 10.33 5.673 13.935.624-1.412 2.1-2.735 4.425-3.715zm10.93-2.506c-.554.093-1.012.544-1.109 1.097-.154.864.507 1.616 1.343 1.616.539 0 1-.315 1.223-.767 1.725-.053 4.009-.442 5.716-2.145 1.875-1.871 2.162-4.499 2.162-7.745-.001-5.317-5.046-8.043-10.363-8.043s-10.362 2.726-10.362 8.043c-.001 4.173.45 6.059 4.103 6.803 0 0-1.183-.561-1.808-1.268-.468-.53-.583-1.284-.391-1.965.576-2.052 1.878-3.798 3.609-4.95l-1.616-2.632c-.238-.404-.103-.925.301-1.163.405-.238.925-.103 1.163.301l1.656 2.696c1.031-.427 2.158-.669 3.345-.669 1.243 0 2.42.265 3.492.73l1.62-2.757c.262-.445.865-.563 1.281-.219.325.269.376.753.162 1.117l-1.576 2.682c1.754 1.269 3.188 3.092 3.477 5.418.273 2.211-2.843 4.545-5.984 4.545-.259-.504-.816-.83-1.444-.725zm-5.203-6.241c.583 0 1.057.474 1.057 1.057s-.474 1.057-1.057 1.057-1.057-.474-1.057-1.057.474-1.057 1.057-1.057zm9.407 1.057c0-.584-.473-1.057-1.057-1.057-.583 0-1.056.473-1.056 1.057s.473 1.057 1.056 1.057c.584 0 1.057-.473 1.057-1.057z" fill="#fff" fill-rule="nonzero" transform="matrix(4.13364 0 0 4.06885 -100.669 -77.1883)"/></g></g></svg>